<?xml version="1.0" encoding="UTF-8" standalone="no"?>
<!-- Created with Inkscape (http://www.inkscape.org/) -->

<svg
   width="196.09911mm"
   height="176.48018mm"
   viewBox="0 0 196.0991 176.48018"
   version="1.1"
   id="svg5"
   xml:space="preserve"
   xmlns:inkscape="http://www.inkscape.org/namespaces/inkscape"
   xmlns:sodipodi="http://sodipodi.sourceforge.net/DTD/sodipodi-0.dtd"
   xmlns="http://www.w3.org/2000/svg"
   xmlns:svg="http://www.w3.org/2000/svg"><sodipodi:namedview
     id="namedview7"
     pagecolor="#ffffff"
     bordercolor="#000000"
     borderopacity="0.25"
     inkscape:showpageshadow="2"
     inkscape:pageopacity="0.0"
     inkscape:pagecheckerboard="0"
     inkscape:deskcolor="#d1d1d1"
     inkscape:document-units="mm"
     showgrid="false" /><defs
     id="defs2" /><g
     inkscape:label="Calque 1"
     inkscape:groupmode="layer"
     id="layer1"
     transform="translate(9.7596076,136.12812)"><path
       style="fill:#000000;stroke-width:0.264583"
       d="m 35.211931,30.154297 c 3.636296,-5.60874 6.540567,-10.31239 6.453934,-10.45257 -0.08663,-0.14017 -0.26629,-0.25486 -0.399243,-0.25486 -0.588587,0 -6.759676,-2.82576 -9.648915,-4.41827 -15.337105,-8.4536 -27.4440523,-21.5076301 -34.404408,-37.09572 -13.433991,-30.08616 -7.107491,-65.08869 15.966977,-88.340257 21.280667,-21.44402 52.418623,-28.97028 81.164851,-19.61813 10.616893,3.45405 20.233743,9.08452 28.898113,16.91926 1.64456,1.48709 3.02682,2.66029 3.07168,2.60711 0.0449,-0.0532 3.80014,-5.84146 8.34506,-12.86284 l 8.26349,-12.76614 h 21.83629 c 17.4333,0 21.78311,0.0667 21.57255,0.33073 -0.14505,0.1819 -9.15903,14.07197 -20.03106,30.86683 l -19.76732,30.536097 0.68681,3.33057 c 3.43104,16.63834 1.59518,33.74044 -5.2567,48.96925 -7.92083,17.6046199 -22.35215,32.01845 -39.94158,39.89314 -4.097593,1.83446 -10.780103,4.05828 -14.842253,4.93923 -1.74625,0.3787 -3.41312,0.74687 -3.70417,0.81815 -0.34453,0.0844 -2.386837,3.01355 -5.853382,8.39519 l -5.324218,8.2656 -21.848977,0.0677 -21.848974,0.0677 z m 88.714349,-77.62238 c 29.77481,-45.97104 54.2088,-83.773387 54.29776,-84.005207 0.14691,-0.38284 -1.35392,-0.4215 -16.36176,-0.4215 h -16.5235 l -17.4867,27.0013 -17.4867,27.001297 0.49435,0.8461 c 0.8871,1.5183 2.84881,6.6102 3.53688,9.18047 1.40675,5.25488 1.61083,6.9076 1.6172,13.09687 0.006,6.07128 -0.16103,7.61214 -1.34086,12.35155 -4.65161,18.68569 -20.443793,32.9818399 -39.13441,35.4271199 -1.309687,0.17135 -4.3977,0.32593 -6.862249,0.34352 l -4.480999,0.032 -13.708518,21.1666601 c -7.539683,11.64167 -13.708779,21.25597 -13.709105,21.36511 -2.64e-4,0.10914 7.427381,0.19843 16.506008,0.19843 h 16.506592 z m -41.321719,4.47329 c 12.492016,-19.28151 23.296579,-35.97052 24.010129,-37.08668 l 1.29736,-2.02939 -1.37009,-1.82204 c -2.24461,-2.98505 -3.88089,-4.77592 -6.39717,-7.00156 -12.554333,-11.104257 -29.744434,-14.638217 -45.227491,-9.297917 -15.103515,5.209397 -26.471975,17.736827 -30.452835,33.557377 -1.109557,4.40955 -1.445213,7.24625 -1.440122,12.17084 0.01839,17.78811 9.175758,33.56352 24.468365,42.15166 3.763243,2.11339 10.457177,4.6314599 11.888089,4.4719599 0.364969,-0.0407 7.00191,-10.0757099 23.223765,-35.1142499 z"
       id="path302" /></g></svg>
